# Blender 3.6.1
# www.blender.org
mtllib rocket.mtl
o Cube
o Cube.001
v -12.423307 0.000000 37.478573
v -16.649372 -5.669717 24.777157
v -25.124722 -5.669716 34.078125
v -16.649376 -9.336258 24.777157
v -12.423307 -15.005974 37.478573
v -25.124722 -9.336257 34.078129
v -12.423307 0.000001 47.427692
v -25.124722 -5.669715 50.828136
v -16.649376 -5.669714 60.129108
v -12.423307 -15.005972 47.427692
v -16.649372 -9.336255 60.129108
v -25.124722 -9.336256 50.828140
v -1.324438 0.000000 37.478573
v 3.889244 -5.213681 37.478573
v 2.901630 -5.669717 24.777157
v -1.324438 -15.005974 37.478573
v 2.901628 -9.336258 24.777157
v 3.889244 -9.792292 37.478573
v -1.324438 0.000001 47.427692
v 2.901628 -5.669714 60.129108
v 3.889244 -5.213680 47.427692
v -1.324438 -15.005972 47.427692
v 3.889244 -9.792291 47.427692
v 2.901630 -9.336255 60.129108
v 35.227707 -5.213682 37.478573
v 34.890358 -5.962595 24.828585
v 34.890358 -9.302825 23.316502
v 35.227707 -9.792293 37.478573
v 34.890358 -5.962592 60.077682
v 35.227707 -5.213681 47.427692
v 35.227707 -9.792292 47.427689
v 34.890358 -9.302821 61.589764
v 15.339354 -5.962595 24.828585
v 15.339357 -9.302825 23.316502
v 15.339357 -9.302821 61.589764
v 15.339354 -5.962592 60.077682
v 45.063431 -3.647098 42.710293
v 51.554092 6.094968 37.663219
v 50.519356 5.194415 34.262947
v 43.771309 -4.771669 38.464184
v 51.554092 6.094968 47.243046
v 45.063431 -3.647098 42.195972
v 43.771309 -4.771668 46.442078
v 50.519356 5.194417 50.643318
v 3.889244 -5.027050 47.427692
v 8.803414 -0.112881 42.513519
v 8.803414 -0.112881 42.392742
v 3.889244 -5.027051 37.478573
v 30.313536 -0.112882 42.513519
v 35.227707 -5.027051 47.427692
v 35.227707 -5.027052 37.478573
v 30.313536 -0.112882 42.392742
v 3.889244 0.573657 53.028400
v 8.803414 5.487827 48.114227
v 30.313536 5.487826 48.114227
v 35.227707 0.573656 53.028397
v 8.803414 4.424775 37.855087
v 3.889244 -0.489397 32.940918
v 35.227707 -0.489398 32.940918
v 30.313536 4.424773 37.855087
v 8.803414 -0.112881 42.513519
v 8.803414 -0.112881 42.392742
v 30.313536 -0.112882 42.392742
v 30.313536 -0.112882 42.513519
v 3.889244 0.573657 53.028400
v 8.803414 5.487827 48.114227
v 30.313536 5.487826 48.114227
v 35.227707 0.573656 53.028397
v 8.803414 4.424775 37.855087
v 3.889244 -0.489397 32.940918
v 35.227707 -0.489398 32.940918
v 30.313536 4.424773 37.855087
v 35.302719 -1.753254 14.268631
v 35.302719 1.913286 14.268631
v 51.581985 12.777419 23.754419
v 52.616722 13.677972 27.154694
v 51.614967 13.012828 61.478058
v 35.335709 -1.517845 70.963852
v 35.335701 2.148697 70.963852
v 52.649704 13.913381 58.077785
v 49.729660 -7.027763 42.185677
v 51.781494 -7.157511 39.376984
v 56.249298 -0.451614 35.902859
v 56.220322 2.714302 37.138603
v 55.185585 1.813749 33.738331
v 56.295670 -0.411262 36.055222
v 51.650681 -7.271359 38.947121
v 48.437538 -8.152335 37.939568
v 55.894310 2.950494 47.731007
v 55.926697 -0.587852 49.112122
v 51.696861 -6.936583 45.823036
v 49.403656 -6.791572 42.683937
v 48.111526 -7.916142 46.930042
v 51.702660 -6.931530 45.803967
v 56.100243 -0.436814 48.541836
v 54.859573 2.049943 51.131279
v 15.339357 5.644366 90.407913
v 15.339354 8.984599 97.297012
v 34.890358 8.984599 97.297012
v 34.890358 5.644366 90.407913
v 15.339354 7.473917 -9.338501
v 15.339357 4.133688 -1.879589
v 34.890358 4.133688 -1.879589
v 34.890358 7.473917 -9.338501
v 8.803414 5.608132 36.671730
v 30.313536 5.608130 36.671730
v 3.889244 0.693962 31.757559
v 35.227707 0.693961 31.757559
vn 0.0016 -0.0000 1.0000
vn -0.0000 -0.9997 -0.0229
vn -0.0000 -1.0000 -0.0000
vn -1.0000 -0.0000 -0.0000
vn -0.0006 -0.9994 0.0358
vn -0.3228 0.8996 -0.2942
vn -0.3228 -0.8996 -0.2942
vn -0.3228 0.8996 0.2942
vn -0.3228 -0.8996 0.2942
vn 0.7048 0.7048 -0.0801
vn 0.7048 -0.7048 -0.0801
vn 0.7048 0.7048 0.0801
vn 0.7048 -0.7048 0.0801
vn -0.4076 0.9132 -0.0000
vn -0.7392 -0.0000 -0.6735
vn -0.4076 -0.9132 -0.0000
vn -0.7392 -0.0000 0.6735
vn -0.0000 0.9132 0.4076
vn -0.0000 -0.9132 0.4076
vn -0.0000 -0.1729 0.9849
vn 0.7071 0.7071 -0.0000
vn 0.7071 -0.7071 -0.0000
vn -0.0420 0.4120 -0.9102
vn -0.0000 0.9132 -0.4076
vn -0.0000 -0.9132 -0.4076
vn -0.0000 1.0000 -0.0000
vn 0.5098 -0.8593 -0.0418
vn 1.0000 -0.0000 -0.0000
vn -0.0000 0.7071 -0.7071
vn 0.7475 -0.6135 0.2547
vn -0.0000 0.9983 0.0591
vn -0.0000 -0.9994 -0.0345
vn 0.0092 0.9993 -0.0366
vn -0.0000 -0.1729 -0.9849
vn -0.0000 -0.9997 0.0229
vn -0.0000 -0.0000 -1.0000
vn -0.6565 0.7543 -0.0000
vn -0.5196 -0.7735 -0.3630
vn 0.5196 0.7735 -0.3630
vn 0.1573 -0.9876 -0.0000
vn -0.4414 0.6268 -0.6421
vn 0.5066 -0.8622 -0.0000
vn -0.5688 0.8218 -0.0335
vn -0.0000 0.7071 0.7071
vn -0.0000 -0.0000 1.0000
vn -0.7071 0.7071 -0.0000
vn 0.8165 0.4082 -0.4082
vn -0.8165 0.4082 0.4082
vn -0.8165 0.4082 -0.4082
vn -0.0000 -0.7071 0.7071
vn -0.0000 -0.7071 -0.7071
vn 0.8165 0.4082 0.4082
vn -0.5196 -0.7735 0.3630
vn -0.2634 -0.2178 -0.9398
vn 0.8065 -0.5843 -0.0907
vn 0.5196 0.7735 0.3630
vn -0.2634 -0.2178 0.9398
vn -0.8065 0.5843 -0.0907
vn -0.6679 0.7442 0.0061
vn -0.9993 0.0150 -0.0331
vn 0.9102 -0.3741 -0.1779
vn -0.5281 0.8468 0.0636
vn -0.9992 -0.0000 0.0409
vn 0.9102 -0.3741 0.1779
vn 0.7828 -0.2200 0.5820
vn 0.3840 -0.5672 -0.7286
vn -0.9377 -0.1338 0.3207
vn 0.2029 -0.9601 0.1925
vn 0.3006 0.2731 0.9138
vn 0.7828 -0.2200 -0.5820
vn 0.3840 -0.5671 0.7286
vn -0.2028 0.9601 0.1928
vn -0.9377 -0.1338 -0.3208
vn 0.3006 0.2731 -0.9138
vn -0.0000 -0.8998 0.4363
vn -0.0000 -0.8877 0.4604
vn -0.0000 0.9280 -0.3727
vn -0.0000 -0.9127 -0.4087
vn -0.0000 -0.8824 -0.4705
vn -0.0000 0.9306 0.3660
vn -0.0420 0.4120 0.9102
vn -0.0000 -0.9994 0.0345
vn -0.0000 -0.1730 0.9849
vn 0.0016 -0.0000 -1.0000
vn 0.7475 -0.6135 -0.2547
vn 0.5098 -0.8593 0.0418
vn 0.0092 0.9993 0.0366
vn -0.0006 -0.9994 -0.0358
vn -0.0000 0.9983 -0.0591
vn -0.0000 -0.1730 -0.9849
vn 0.6565 -0.7543 -0.0000
vn -0.1573 0.9876 -0.0000
vn -0.5688 0.8218 0.0335
vn -0.4414 0.6268 0.6421
vn -0.8065 0.5843 0.0907
vn -0.8065 0.5843 -0.0908
vn 0.5970 -0.0000 -0.8022
vn -0.9992 -0.0000 -0.0390
vn 0.5035 -0.0000 0.8640
vn -0.9993 0.0156 0.0345
vn 0.3840 -0.5671 -0.7286
vn 0.9377 0.1338 -0.3208
vn 0.2029 -0.9601 -0.1925
vn 0.9377 0.1338 0.3208
vn -0.0000 -0.8824 -0.4706
vt 0.538140 0.310550
vt 0.461860 0.310550
vt 0.538140 0.810550
vt 0.538140 0.939450
vt 0.814450 0.563967
vt 0.685550 0.686033
vt 0.685550 0.563967
vt 0.538140 0.063967
vt 0.461860 0.186033
vt 0.461860 0.063967
vt 0.538140 0.500000
vt 0.538140 0.439450
vt 0.185550 0.686033
vt 0.185550 0.750000
vt 0.125000 0.686033
vt 0.538140 0.000000
vt 0.625000 0.063967
vt 0.185550 0.563967
vt 0.125000 0.563967
vt 0.185550 0.500000
vt 0.625000 0.186033
vt 0.538140 0.250000
vt 0.538140 0.186033
vt 0.314450 0.686033
vt 0.375000 0.686033
vt 0.314450 0.750000
vt 0.625000 0.810550
vt 0.538140 0.750000
vt 0.314450 0.563967
vt 0.314450 0.500000
vt 0.375000 0.563967
vt 0.625000 0.439450
vt 0.461860 0.000000
vt 0.625000 0.439450
vt 0.625000 0.310550
vt 0.461860 0.686033
vt 0.538140 0.563967
vt 0.625000 0.939450
vt 0.461860 0.439450
vt 0.461860 0.625741
vt 0.538140 0.686033
vt 0.314450 0.750000
vt 0.461860 0.563967
vt 0.461860 0.810550
vt 0.538140 0.810550
vt 0.461860 0.624259
vt 0.461860 0.624259
vt 0.375000 0.686033
vt 0.461860 0.686033
vt 0.498342 0.791147
vt 0.496045 0.705436
vt 0.503955 0.705436
vt 0.538140 0.439450
vt 0.499824 0.542281
vt 0.506176 0.461136
vt 0.493824 0.461136
vt 0.501658 0.791147
vt 0.500176 0.542281
vt 0.461860 0.439450
vt 0.538140 0.563967
vt 0.461860 0.939450
vt 0.814450 0.686033
s 0
f 11/1/1 36/2/1 9/2/1
f 17/3/2 34/4/2 27/3/2
f 10/5/3 16/6/3 22/7/3
f 6/8/4 8/9/4 3/10/4
f 23/11/5 32/12/5 24/12/5
f 1/13/6 2/14/6 3/15/6
f 4/16/7 5/17/7 6/8/7
f 7/18/8 8/19/8 9/20/8
f 10/21/9 11/22/9 12/23/9
f 13/24/10 14/25/10 15/26/10
f 16/27/11 17/3/11 18/28/11
f 19/29/12 20/30/12 21/31/12
f 22/32/13 23/11/13 24/12/13
f 1/13/14 8/19/14 7/18/14
f 4/16/15 3/10/15 2/33/15
f 10/21/16 6/8/16 5/17/16
f 9/2/17 12/23/17 11/1/17
f 7/18/18 20/30/18 19/29/18
f 22/34/19 11/1/19 10/35/19
f 20/30/20 36/20/20 29/30/20
f 19/29/21 14/36/21 13/24/21
f 16/6/22 23/37/22 22/7/22
f 4/16/23 33/33/23 34/16/23
f 13/24/24 2/14/24 1/13/24
f 5/38/25 17/3/25 16/27/25
f 19/29/26 1/13/26 7/18/26
f 33/33/4 102/16/4 34/16/4
f 27/3/27 40/28/27 28/28/27
f 29/39/28 100/12/28 32/12/28
f 105/40/29 108/36/29 107/36/29
f 32/12/30 43/11/30 44/12/30
f 21/31/31 29/30/31 30/31/31
f 18/28/32 27/3/32 28/28/32
f 18/41/3 31/37/3 23/37/3
f 14/25/33 26/26/33 15/26/33
f 15/42/34 33/14/34 2/14/34
f 24/12/35 35/1/35 11/1/35
f 14/25/36 51/25/36 25/25/36
f 42/43/37 40/41/37 37/36/37
f 43/37/38 92/43/38 93/37/38
f 38/44/39 85/45/39 39/3/39
f 25/36/40 42/43/40 37/36/40
f 30/31/41 41/30/41 42/31/41
f 28/41/42 43/37/42 31/37/42
f 25/25/43 38/26/43 26/26/43
f 57/40/44 106/40/44 105/40/44
f 30/31/45 45/31/45 21/31/45
f 25/36/28 50/43/28 30/43/28
f 21/43/4 48/36/4 14/36/4
f 62/40/46 45/43/46 61/46/46
f 51/36/21 64/47/21 50/43/21
f 64/47/47 68/43/47 50/43/47
f 62/40/48 70/36/48 48/36/48
f 46/46/26 52/40/26 47/40/26
f 54/46/44 56/43/44 55/47/44
f 45/43/49 66/46/49 61/46/49
f 50/31/50 65/31/50 45/31/50
f 46/46/29 55/47/29 49/47/29
f 58/36/51 108/36/51 59/36/51
f 48/48/51 71/25/51 51/25/51
f 47/40/44 60/40/44 57/40/44
f 51/36/52 72/40/52 63/40/52
f 46/46/3 62/40/3 61/46/3
f 52/40/3 64/47/3 63/40/3
f 53/43/3 66/46/3 65/43/3
f 55/47/3 68/43/3 67/47/3
f 56/43/3 65/43/3 68/43/3
f 49/47/3 67/47/3 64/47/3
f 54/46/3 61/46/3 66/46/3
f 57/40/3 70/36/3 69/40/3
f 59/36/3 72/40/3 71/36/3
f 58/36/3 71/36/3 70/36/3
f 47/40/3 69/40/3 62/40/3
f 60/40/3 63/40/3 72/40/3
f 40/41/53 81/49/53 37/36/53
f 40/28/54 85/3/54 88/28/54
f 86/50/55 82/51/55 87/52/55
f 41/39/56 96/12/56 89/39/56
f 43/11/57 96/53/57 44/12/57
f 94/54/58 90/55/58 95/56/58
f 73/3/59 76/44/59 75/3/59
f 26/44/60 73/3/60 27/3/60
f 57/40/48 107/36/48 58/36/48
f 39/3/61 76/44/61 38/44/61
f 79/39/62 77/12/62 80/39/62
f 59/36/52 106/40/52 60/40/52
f 29/39/63 78/12/63 79/39/63
f 44/12/64 80/39/64 77/12/64
f 82/51/65 84/44/65 81/36/65
f 87/52/66 85/3/66 86/50/66
f 85/45/67 83/57/67 86/50/67
f 88/41/68 82/51/68 81/49/68
f 38/26/69 81/25/69 84/26/69
f 91/58/70 89/59/70 90/55/70
f 94/54/71 96/12/71 93/60/71
f 93/37/72 91/58/72 94/54/72
f 89/39/73 95/56/73 90/55/73
f 41/30/74 92/31/74 42/31/74
f 97/1/75 99/39/75 98/2/75
f 32/12/76 97/1/76 35/1/76
f 36/2/4 97/1/4 98/2/4
f 36/20/77 99/30/77 29/30/77
f 104/44/78 102/4/78 101/61/78
f 34/4/79 103/3/79 27/3/79
f 26/42/80 101/14/80 33/14/80
f 26/44/28 103/3/28 104/44/28
f 11/1/81 35/1/81 36/2/81
f 17/3/2 4/4/2 34/4/2
f 10/5/3 5/62/3 16/6/3
f 6/8/4 12/23/4 8/9/4
f 23/11/82 31/11/82 32/12/82
f 1/13/14 3/15/14 8/19/14
f 4/16/15 6/8/15 3/10/15
f 10/21/16 12/23/16 6/8/16
f 9/2/17 8/9/17 12/23/17
f 7/18/18 9/20/18 20/30/18
f 22/34/19 24/12/19 11/1/19
f 20/30/83 9/20/83 36/20/83
f 19/29/21 21/43/21 14/36/21
f 16/6/22 18/41/22 23/37/22
f 4/16/84 2/33/84 33/33/84
f 13/24/24 15/42/24 2/14/24
f 5/38/25 4/4/25 17/3/25
f 19/29/26 13/24/26 1/13/26
f 33/33/4 101/33/4 102/16/4
f 27/3/85 39/3/85 40/28/85
f 29/39/28 99/39/28 100/12/28
f 105/40/29 106/40/29 108/36/29
f 32/12/86 31/11/86 43/11/86
f 21/31/87 20/30/87 29/30/87
f 18/28/88 17/3/88 27/3/88
f 18/41/3 28/41/3 31/37/3
f 14/25/89 25/25/89 26/26/89
f 15/42/90 26/42/90 33/14/90
f 24/12/35 32/12/35 35/1/35
f 14/25/36 48/48/36 51/25/36
f 42/43/91 43/37/91 40/41/91
f 43/37/38 42/43/38 92/43/38
f 38/44/39 84/44/39 85/45/39
f 25/36/92 30/43/92 42/43/92
f 30/31/93 29/30/93 41/30/93
f 28/41/42 40/41/42 43/37/42
f 25/25/94 37/25/94 38/26/94
f 57/40/44 60/40/44 106/40/44
f 30/31/45 50/31/45 45/31/45
f 25/36/28 51/36/28 50/43/28
f 21/43/4 45/43/4 48/36/4
f 62/40/46 48/36/46 45/43/46
f 51/36/21 63/40/21 64/47/21
f 64/47/47 67/47/47 68/43/47
f 62/40/48 69/40/48 70/36/48
f 46/46/26 49/47/26 52/40/26
f 54/46/44 53/43/44 56/43/44
f 45/43/49 65/43/49 66/46/49
f 50/31/50 68/31/50 65/31/50
f 46/46/29 54/46/29 55/47/29
f 58/36/51 107/36/51 108/36/51
f 48/48/51 70/48/51 71/25/51
f 47/40/44 52/40/44 60/40/44
f 51/36/52 71/36/52 72/40/52
f 46/46/3 47/40/3 62/40/3
f 52/40/3 49/47/3 64/47/3
f 53/43/3 54/46/3 66/46/3
f 55/47/3 56/43/3 68/43/3
f 56/43/3 53/43/3 65/43/3
f 49/47/3 55/47/3 67/47/3
f 54/46/3 46/46/3 61/46/3
f 57/40/3 58/36/3 70/36/3
f 59/36/3 60/40/3 72/40/3
f 58/36/3 59/36/3 71/36/3
f 47/40/3 57/40/3 69/40/3
f 60/40/3 52/40/3 63/40/3
f 40/41/53 88/41/53 81/49/53
f 40/28/54 39/3/54 85/3/54
f 86/50/95 83/57/95 82/51/95
f 41/39/56 44/12/56 96/12/56
f 43/11/57 93/11/57 96/53/57
f 94/54/96 91/58/96 90/55/96
f 73/3/97 74/44/97 76/44/97
f 26/44/98 74/44/98 73/3/98
f 57/40/48 105/40/48 107/36/48
f 39/3/61 75/3/61 76/44/61
f 79/39/99 78/12/99 77/12/99
f 59/36/52 108/36/52 106/40/52
f 29/39/100 32/12/100 78/12/100
f 44/12/64 41/39/64 80/39/64
f 82/51/65 83/57/65 84/44/65
f 87/52/101 88/41/101 85/3/101
f 85/45/102 84/44/102 83/57/102
f 88/41/68 87/52/68 82/51/68
f 38/26/69 37/25/69 81/25/69
f 91/58/70 92/43/70 89/59/70
f 94/54/71 95/56/71 96/12/71
f 93/37/103 92/43/103 91/58/103
f 89/39/104 96/12/104 95/56/104
f 41/30/74 89/30/74 92/31/74
f 97/1/75 100/12/75 99/39/75
f 32/12/76 100/12/76 97/1/76
f 36/2/4 35/1/4 97/1/4
f 36/20/77 98/20/77 99/30/77
f 104/44/78 103/3/78 102/4/78
f 34/4/105 102/4/105 103/3/105
f 26/42/80 104/42/80 101/14/80
f 26/44/28 27/3/28 103/3/28
